<svg width="43" height="33" viewBox="0 0 43 33" fill="none" xmlns="http://www.w3.org/2000/svg">
<path d="M42.146 23.7219L38.3653 21.0802L39.0173 16.4314C39.0968 15.8657 38.8664 15.2957 38.416 14.944C37.9656 14.5924 37.3571 14.5071 36.8274 14.7213L34.9812 15.4679C34.5862 14.856 33.9756 14.3965 33.2572 14.1973C33.2627 14.1124 33.4618 12.9799 32.7433 11.9816H37.0328C37.0333 11.9816 37.0339 11.9816 37.0347 11.9816C37.9193 11.9816 38.6388 11.2619 38.6388 10.3774C38.6388 10.0683 38.551 9.76913 38.3845 9.51038L37.3808 7.77195C37.7297 7.32465 37.8263 6.71087 37.5976 6.16502C37.4784 5.8801 37.2817 5.63792 37.0282 5.46341L35.2798 4.1328L34.144 2.1654C33.8584 1.67067 33.326 1.36323 32.7547 1.36323C32.4626 1.36323 32.1809 1.44396 31.9369 1.58868L30.2792 0.327002C29.8244 -0.0189943 29.2148 -0.0967095 28.6878 0.123972C28.161 0.344737 27.7887 0.833867 27.7163 1.40063L27.6578 1.85956C27.6134 2.20807 27.8598 2.52662 28.2082 2.57104C28.5567 2.61563 28.8751 2.3691 28.9197 2.0206L28.9783 1.56175C29.049 1.13753 29.3034 1.16932 29.5087 1.33948L31.13 2.57347L28.9029 6.43096C28.7348 6.35718 28.5603 6.29536 28.3806 6.24609L28.6819 3.88518C28.7263 3.53676 28.4799 3.21811 28.1314 3.17369C27.7825 3.12869 27.4645 3.37564 27.4199 3.72414L27.1144 6.11876C26.9871 6.12713 26.8608 6.14102 26.7357 6.16193C26.4378 5.14109 25.8477 4.21888 25.0325 3.51584C24.028 2.6496 22.7436 2.17251 21.4156 2.17251C20.0877 2.17251 18.8032 2.6496 17.7988 3.51584C16.9837 4.21888 16.3935 5.14109 16.0956 6.16193C15.8872 6.12713 15.6755 6.10956 15.4617 6.10956C13.3494 6.10956 11.6308 7.82808 11.6308 9.94045C11.6308 10.1096 11.6421 10.2784 11.6643 10.4461C9.41424 11.6756 9.5685 14.1123 9.57394 14.1972C8.85568 14.3963 8.245 14.8559 7.84998 15.4678L6.0038 14.7212C5.47418 14.5071 4.86543 14.5924 4.41511 14.944C3.96471 15.2956 3.73441 15.8656 3.8138 16.4312L4.46581 21.0802L0.68536 23.7219C0.21706 24.0491 -0.0432743 24.6061 0.00591478 25.1751C0.0551038 25.7443 0.407124 26.2482 0.924696 26.4902L2.62197 27.2838C1.79956 27.439 1.17508 28.1618 1.17508 29.0287V29.3514C1.17508 30.3311 1.97206 31.1282 2.9519 31.1282H4.48714L5.28613 32.2997C5.58528 32.7382 6.08068 33 6.61147 33H36.2198C36.7506 33 37.246 32.7382 37.5452 32.2996L38.3441 31.1282H39.8793C40.8591 31.1282 41.6562 30.3312 41.6562 29.3514V29.0287C41.6562 28.1617 41.0317 27.439 40.2091 27.2838L41.9065 26.4902C42.4243 26.2482 42.7762 25.7443 42.8253 25.1753C42.8746 24.606 42.6143 24.0491 42.146 23.7219ZM35.4286 16.6591L37.3043 15.9007C37.4139 15.8564 37.5399 15.8741 37.633 15.9468C37.7262 16.0196 37.7739 16.1374 37.7574 16.2546L37.1954 20.2625C37.1954 20.2625 35.0293 18.7542 34.9756 18.7253C35.2816 18.2547 35.6221 17.5881 35.4286 16.6591ZM32.4673 2.8016C32.5265 2.6992 32.6367 2.63563 32.7549 2.63563C32.8732 2.63563 32.9832 2.6992 33.0425 2.80168L37.2916 10.1614C37.4033 10.3294 37.4033 10.6687 37.0351 10.7094C37.0346 10.7095 37.0337 10.7094 37.0331 10.7094H31.5917C31.4565 10.6134 31.315 10.5252 31.1671 10.4462C31.1895 10.2786 31.2006 10.1097 31.2006 9.94054C31.2006 8.83052 30.7256 7.82976 29.9688 7.1294L32.4673 2.8016ZM12.6072 11.4153C12.9243 11.3112 13.0931 10.9641 13.0015 10.6432C12.9361 10.4135 12.903 10.1772 12.903 9.94054C12.903 8.52961 14.0508 7.38187 15.4617 7.38187C15.7672 7.38187 16.0661 7.43524 16.3502 7.54048C16.5288 7.60665 17.1041 7.59418 17.1994 7.04307C17.5587 4.96316 19.3014 3.4449 21.4156 3.4449C23.5299 3.4449 25.2886 4.96048 25.6318 7.04307C25.7305 7.64212 26.3022 7.60673 26.4811 7.54048C26.7652 7.43524 27.0641 7.38187 27.3696 7.38187C28.7805 7.38187 29.9283 8.5297 29.9283 9.94054C29.9283 10.1773 29.8951 10.4136 29.8297 10.6432C29.7383 10.9642 29.9272 11.263 30.2241 11.4153C32.1714 12.4144 31.9917 14.0394 31.9891 14.0879H10.8421C10.8396 14.0394 10.9409 11.9621 12.6072 11.4153ZM10.3754 15.3601H32.4561C33.4111 15.3601 34.188 16.1371 34.188 17.0922C34.188 18.0472 33.4111 18.8242 32.4561 18.8242C32.4561 18.8242 31.222 18.8254 31.2061 18.8266C31.2061 18.8266 30.7584 17.9057 29.7482 17.9057C28.7381 17.9057 28.2919 18.8242 28.2919 18.8242H14.5396C14.5396 18.8242 14.0803 17.9124 13.0832 17.9057C12.086 17.899 11.6267 18.8242 11.6267 18.8242H10.3754C9.42035 18.8242 8.64336 18.0472 8.64336 17.0922C8.64336 16.1373 9.42035 15.3601 10.3754 15.3601ZM23.8992 27.2517H18.9324C18.9551 27.1446 18.9675 27.0336 18.9675 26.9197C18.9673 26.6109 18.8795 26.3116 18.7129 26.0528L17.4633 23.8882C17.2878 23.584 16.8986 23.4797 16.5944 23.6554C16.2902 23.8311 16.1859 24.2201 16.3616 24.5243L17.6199 26.7037C17.6264 26.715 17.6332 26.7262 17.6404 26.737C17.6762 26.791 17.6952 26.8541 17.6952 26.9197C17.6952 27.1028 17.5462 27.2517 17.3633 27.2517H17.3624H8.80507C8.68686 27.2517 8.57677 27.1882 8.51755 27.0857C8.4584 26.9832 8.4584 26.8561 8.51755 26.7537L12.7955 19.3439C12.8546 19.2415 12.9648 19.1779 13.0831 19.1779C13.2013 19.1779 13.3114 19.2415 13.3706 19.3439L15.4326 22.9153C15.6084 23.2196 15.9975 23.3239 16.3015 23.1481C16.6058 22.9725 16.71 22.5835 16.5344 22.2792L15.2741 20.0963H27.5572L24.1184 26.0527C23.952 26.3115 23.864 26.6108 23.864 26.9197C23.8641 27.0335 23.8765 27.1445 23.8992 27.2517ZM10.224 20.0926C10.2741 20.0951 10.8921 20.0965 10.8921 20.0965L10.3114 21.1024L10.224 20.0926ZM25.1909 26.7371C25.1981 26.7262 25.2049 26.715 25.2115 26.7038L29.4606 19.3441C29.5198 19.2416 29.6299 19.178 29.7481 19.178C29.8664 19.178 29.9765 19.2416 30.0358 19.3441L34.3137 26.7538C34.3728 26.8562 34.3728 26.9835 34.3136 27.0859C34.2546 27.1882 34.1444 27.2518 34.0262 27.2518H25.469C25.2877 27.2548 25.1361 27.1032 25.1362 26.9198C25.1362 26.8542 25.1551 26.7911 25.1909 26.7371ZM32.5198 21.1024L31.9391 20.0965H32.456C32.5067 20.0965 32.557 20.0951 32.6072 20.0926L32.5198 21.1024ZM5.19829 15.9468C5.29156 15.874 5.41755 15.8564 5.52714 15.9007L7.40284 16.6591C7.22341 17.5598 7.54983 18.2547 7.85584 18.7253C7.80213 18.7542 5.63605 20.2625 5.63605 20.2625L5.07389 16.2544C5.0575 16.1374 5.1051 16.0196 5.19829 15.9468ZM1.46343 25.3377C1.35644 25.2876 1.28358 25.1834 1.27337 25.0656C1.26316 24.9478 1.31712 24.8325 1.41399 24.7648L8.42745 19.8641C8.52441 19.7964 8.65114 19.7854 8.75814 19.8354C8.8653 19.8855 8.93808 19.9897 8.94837 20.1075L9.20076 23.0257L7.41564 26.1175C7.21546 26.4643 7.15615 26.8698 7.23646 27.2517H5.55784L1.46343 25.3377ZM40.3839 29.0285V29.3512C40.3839 29.6295 40.1576 29.8557 39.8794 29.8557H26.3136C25.9623 29.8557 25.6775 30.1406 25.6775 30.4919C25.6775 30.8431 25.9623 31.128 26.3136 31.128H36.8041L36.4942 31.5824C36.4323 31.6732 36.3296 31.7274 36.2198 31.7274H6.61155C6.50171 31.7274 6.39907 31.6732 6.33725 31.5825L6.02723 31.128H21.5641C21.9155 31.128 22.2002 30.8431 22.2002 30.4919C22.2002 30.1406 21.9155 29.8557 21.5641 29.8557H2.9519C2.67367 29.8557 2.44738 29.6295 2.44738 29.3512V29.0285C2.44738 28.7503 2.67375 28.524 2.9519 28.524H17.3584C17.359 28.524 17.3596 28.524 17.3602 28.524C17.3628 28.524 17.3654 28.524 17.3679 28.524H39.8793C40.1576 28.524 40.3839 28.7503 40.3839 29.0285ZM41.5579 25.0657C41.5477 25.1834 41.4748 25.2876 41.3679 25.3376L37.2734 27.2517H35.5948C35.6752 26.8698 35.6158 26.4642 35.4157 26.1176L33.6307 23.0259L33.883 20.1077C33.8933 19.9899 33.9662 19.8856 34.0732 19.8355C34.1802 19.7855 34.307 19.7963 34.404 19.8641L41.4174 24.7648C41.5141 24.8324 41.5681 24.9477 41.5579 25.0657Z" fill="#449728"/>
</svg>
