<svg width="40" height="40" viewBox="0 0 40 40" fill="none" xmlns="http://www.w3.org/2000/svg">
<path d="M37.2864 6.30749C34.7947 4.88845 32.0538 3.96119 29.2127 3.57604C28.7825 2.7479 28.1839 2.019 27.4553 1.43622C26.6707 0.81198 25.7543 0.374586 24.7757 0.157167C23.7971 -0.0602519 22.7818 -0.0519935 21.8068 0.181317C19.723 0.707396 17.7019 1.45666 15.7786 2.41614C14.4132 1.76666 12.8882 1.52967 11.3902 1.73421C9.89228 1.93875 8.48648 2.57593 7.345 3.56771C6.73368 4.09267 6.11903 4.64096 5.5127 5.20591C4.8764 5.80419 4.22843 6.48414 3.58213 7.22241C2.77232 8.14869 2.19439 9.25444 1.89606 10.4483C1.59774 11.6422 1.58758 12.8899 1.86643 14.0885C1.99516 14.6543 2.18564 15.2042 2.43444 15.7284C1.46892 17.6663 0.713919 19.7022 0.182377 21.8012C-0.0518203 22.7766 -0.0605767 23.7926 0.156774 24.7719C0.374125 25.7511 0.811857 26.6679 1.43667 27.4524C2.02524 28.189 2.7633 28.7922 3.60212 29.2223C3.98809 32.0607 4.91429 34.7988 6.33058 37.2883C6.88007 38.2759 7.73187 39.061 8.76067 39.5281C9.78946 39.9952 10.9409 40.1196 12.0457 39.8831C13.1885 39.6567 14.2281 39.0684 15.011 38.2053C15.7939 37.3422 16.2785 36.25 16.3932 35.0902C16.7042 32.9447 17.2678 30.8436 18.0723 28.8307C18.0723 28.8307 18.9801 28.2707 19.3949 27.9324C20.3935 27.0943 21.1024 25.9623 21.4204 24.6977C22.1905 24.4426 22.8908 24.0118 23.4659 23.4394C24.0261 22.869 24.4498 22.179 24.7052 21.4213C25.9649 21.1015 27.0921 20.3931 27.9267 19.3964C28.2599 18.9815 28.8262 18.0715 28.8262 18.0715C30.8338 17.245 32.9385 16.6777 35.0894 16.3833C36.2487 16.2686 37.3403 15.7837 38.203 15.0004C39.0657 14.2172 39.6537 13.177 39.88 12.0337C40.1203 10.9271 39.9977 9.77252 39.5306 8.74109C39.0634 7.70966 38.2765 6.85629 37.2864 6.30749ZM13.0734 34.7185C13.0333 35.1782 12.8447 35.6122 12.536 35.955C12.2274 36.2978 11.8155 36.5307 11.3627 36.6184C10.9461 36.7132 10.5099 36.6683 10.1213 36.4907C9.73267 36.313 9.41326 36.0123 9.21228 35.6351C8.21051 33.8798 7.4926 31.977 7.08515 29.9972H13.5815C13.7631 29.9972 13.9396 29.9606 14.1195 29.9506C13.6431 31.4221 13.0734 34.7118 13.0734 34.7185ZM17.2877 25.3426C16.2419 26.1957 14.9342 26.6624 13.5848 26.6642H6.67871C6.17201 26.6653 5.67174 26.5507 5.21596 26.3292C4.76018 26.1077 4.36091 25.7851 4.04853 25.3859C3.73694 24.9954 3.51843 24.5388 3.40962 24.0511C3.30081 23.5634 3.30454 23.0572 3.42055 22.5712C3.75403 21.2257 4.19979 19.9107 4.75313 18.6398C5.26737 19.0424 5.8304 19.3784 6.42885 19.6397L17.5509 24.5127C17.6542 24.561 17.7641 24.5793 17.8691 24.6193C17.72 24.8932 17.5231 25.1382 17.2877 25.3426ZM21.0939 21.0896C20.8156 21.372 20.4566 21.5611 20.0665 21.6309C19.6763 21.7008 19.2741 21.6479 18.9151 21.4796L7.76643 16.595C7.10171 16.3036 6.51569 15.8584 6.05667 15.296C5.59764 14.7336 5.27875 14.0701 5.12626 13.3602C4.96459 12.6721 4.96879 11.9554 5.13851 11.2693C5.30823 10.5831 5.6386 9.94716 6.10237 9.4139C6.67871 8.75729 7.24839 8.15734 7.80641 7.63238C8.36443 7.10742 8.94244 6.5908 9.51711 6.09917C10.0475 5.63738 10.6792 5.30718 11.3609 5.13538C12.0427 4.96358 12.7554 4.95501 13.4411 5.11037C14.1268 5.26573 14.7663 5.58064 15.3076 6.02954C15.8488 6.47845 16.2767 7.04871 16.5565 7.69404L21.4937 18.8431C21.6589 19.2147 21.7091 19.6273 21.6378 20.0277C21.5666 20.428 21.3771 20.7979 21.0939 21.0896ZM26.6674 13.5752C26.6663 14.9251 26.2004 16.2334 25.3482 17.2799C25.1535 17.5055 24.922 17.6966 24.6636 17.8449C24.6203 17.7282 24.5886 17.6082 24.5386 17.4932L19.6031 6.34582C19.3536 5.77984 19.0394 5.24466 18.667 4.75095C19.9309 4.19874 21.2385 3.75279 22.5764 3.41772C23.0622 3.30141 23.5682 3.29754 24.0557 3.40642C24.5433 3.51529 24.9996 3.73404 25.3898 4.046C25.7897 4.35923 26.1127 4.75976 26.3341 5.21699C26.5555 5.67422 26.6695 6.17605 26.6674 6.68412V13.5752ZM36.6168 11.3521C36.5292 11.805 36.2964 12.2171 35.9538 12.5259C35.6112 12.8347 35.1773 13.0235 34.7179 13.0636C34.7179 13.0636 31.4231 13.6336 29.9523 14.1135C29.9639 13.9335 29.9989 13.7569 29.9989 13.5752V7.07576C31.9777 7.4834 33.8796 8.20166 35.634 9.20392C36.0099 9.40546 36.3094 9.72457 36.4869 10.1125C36.6643 10.5004 36.71 10.9358 36.6168 11.3521Z" fill="#449728"/>
</svg>
