<svg width="31" height="40" viewBox="0 0 31 40" fill="none" xmlns="http://www.w3.org/2000/svg">
<path d="M24.3821 39.9072H6.08208C5.67104 39.9072 5.31958 39.6272 5.21831 39.2341L0.416944 20.3562C0.351414 20.0882 0.410984 19.8082 0.577784 19.5878C0.744584 19.3674 1.00668 19.2423 1.28071 19.2423H29.1834C29.4574 19.2423 29.7196 19.3674 29.8864 19.5878C30.0531 19.8082 30.1127 20.0882 30.0472 20.3562L25.2458 39.2341C25.1505 39.6332 24.7931 39.9072 24.3821 39.9072ZM6.77905 38.1201H23.691L28.0397 21.0294H2.43042L6.77905 38.1201Z" fill="#449728"/>
<path d="M1.22714 21.1722C0.857814 21.1722 0.512304 20.9399 0.381254 20.5706C0.125099 19.8438 0 19.0813 0 18.301C0 16.7879 0.482524 15.3522 1.39394 14.1489C2.15049 13.1541 3.17509 12.3797 4.3248 11.915C4.52138 10.0147 5.37324 8.25745 6.75527 6.91116C8.29218 5.41594 10.3176 4.59387 12.4622 4.59387C16.5904 4.59387 20.0157 7.6677 20.5697 11.647C21.5288 11.1585 22.5951 10.9023 23.6852 10.9023C27.4739 10.9023 30.5537 13.9821 30.5537 17.7708C30.5537 18.7597 30.3511 19.7068 29.946 20.6004C29.7435 21.0472 29.2133 21.2497 28.7606 21.0472C28.3138 20.8446 28.1113 20.3144 28.3138 19.8617C28.6117 19.2005 28.7606 18.4975 28.7606 17.7708C28.7606 14.965 26.479 12.6894 23.6792 12.6894C22.4402 12.6894 21.2488 13.1422 20.3195 13.9583C20.0455 14.1966 19.6582 14.2502 19.3306 14.0893C19.003 13.9285 18.8123 13.589 18.8362 13.2256C18.8481 13.0707 18.854 12.9218 18.854 12.7788C18.854 9.25227 15.9828 6.38098 12.4562 6.38098C8.97128 6.38098 6.16552 9.1093 6.06425 12.5882C6.05234 12.9754 5.79619 13.309 5.42685 13.4222C3.28232 14.0536 1.78115 16.0611 1.78115 18.295C1.78115 18.8728 1.87646 19.4328 2.06709 19.9749C2.22793 20.4395 1.98369 20.9518 1.51904 21.1127C1.42373 21.1544 1.32841 21.1722 1.22714 21.1722Z" fill="#449728"/>
<path d="M29.6661 18.6704C29.1716 18.6704 28.7725 18.2713 28.7725 17.7769C28.7725 14.9711 26.491 12.6955 23.6912 12.6955C21.6658 12.6955 19.831 13.8988 19.0268 15.7574C18.8302 16.2102 18.306 16.4187 17.8533 16.2221C17.4005 16.0255 17.192 15.5013 17.3886 15.0485C18.4788 12.5347 20.9569 10.9144 23.6912 10.9144C27.4798 10.9144 30.5596 13.9942 30.5596 17.7828C30.5596 18.2713 30.1605 18.6704 29.6661 18.6704ZM0.893554 19.1946C0.399124 19.1946 0 18.7955 0 18.3011C0 14.5124 3.07978 11.4326 6.86845 11.4326C8.11347 11.4326 9.33465 11.7722 10.401 12.4096C10.824 12.6657 10.961 13.2138 10.7048 13.6367C10.4487 14.0597 9.90055 14.1967 9.47765 13.9405C8.6913 13.4699 7.79179 13.2197 6.86845 13.2197C4.06269 13.2197 1.78711 15.5013 1.78711 18.3011C1.78711 18.7955 1.38798 19.1946 0.893554 19.1946Z" fill="#449728"/>
<path d="M27.0032 13.315C26.8542 13.315 26.7053 13.2793 26.5683 13.2018C26.1394 12.9636 25.9786 12.4155 26.2228 11.9866C26.5802 11.3492 26.7649 10.6165 26.7649 9.88381C26.7649 7.48909 24.8169 5.54114 22.4222 5.54114C20.8019 5.54114 19.3245 6.43469 18.574 7.87034C18.3476 8.3052 17.8055 8.47795 17.3706 8.24563C16.9358 8.01926 16.763 7.47717 16.9954 7.04231C18.0557 5.01692 20.1407 3.75403 22.4282 3.75403C25.8058 3.75403 28.558 6.50618 28.558 9.88381C28.558 10.9263 28.2899 11.9509 27.7895 12.8563C27.7106 12.9954 27.5963 13.1111 27.4582 13.1917C27.32 13.2723 27.1631 13.3148 27.0032 13.315Z" fill="#449728"/>
<path d="M24.2689 5.70361C24.1617 5.70361 24.0604 5.68574 23.9532 5.64404C23.4885 5.47129 23.2562 4.95302 23.4349 4.49433C24.2391 2.36172 26.0262 0.693746 28.2065 0.0384726C28.6771 -0.104496 29.1775 0.16357 29.3204 0.634176C29.4634 1.10478 29.1953 1.60517 28.7247 1.74814C27.0687 2.24853 25.7224 3.50547 25.1088 5.12578C24.9718 5.4832 24.6263 5.70361 24.2689 5.70361ZM15.2321 39.7897C14.7376 39.7897 14.3385 39.3906 14.3385 38.8962V24.087C14.3385 23.5926 14.7376 23.1935 15.2321 23.1935C15.7265 23.1935 16.1256 23.5926 16.1256 24.087V38.8962C16.1256 39.3906 15.7265 39.7897 15.2321 39.7897ZM20.0751 39.7897C20.0453 39.7897 20.0156 39.7897 19.9798 39.7838C19.4913 39.7302 19.1339 39.2953 19.1816 38.8009L20.7304 23.9262C20.784 23.4377 21.2189 23.0803 21.7133 23.1279C22.2018 23.1815 22.5592 23.6164 22.5116 24.1108L20.9627 38.9855C20.9151 39.4502 20.5279 39.7897 20.0751 39.7897ZM10.5915 39.7897C10.1388 39.7897 9.75159 39.4502 9.70389 38.9915L8.1551 24.1823C8.10149 23.6938 8.45891 23.253 8.95334 23.1994C9.44179 23.1458 9.88259 23.5032 9.93629 23.9977L11.4791 38.8068C11.5327 39.2953 11.1753 39.7361 10.6809 39.7897H10.5915Z" fill="#449728"/>
<path d="M6.12378 16.6033C6.12378 16.9193 6.2493 17.2224 6.47273 17.4458C6.69616 17.6692 6.9992 17.7947 7.31518 17.7947C7.63116 17.7947 7.9342 17.6692 8.15763 17.4458C8.38106 17.2224 8.50659 16.9193 8.50659 16.6033C8.50659 16.2874 8.38106 15.9843 8.15763 15.7609C7.9342 15.5374 7.63116 15.4119 7.31518 15.4119C6.9992 15.4119 6.69616 15.5374 6.47273 15.7609C6.2493 15.9843 6.12378 16.2874 6.12378 16.6033Z" fill="#449728"/>
<path d="M11.7234 9.99097C11.7234 10.3069 11.8489 10.6099 12.0723 10.8334C12.2958 11.0568 12.5988 11.1823 12.9148 11.1823C13.2308 11.1823 13.5338 11.0568 13.7572 10.8334C13.9807 10.6099 14.1062 10.3069 14.1062 9.99097C14.1062 9.67499 13.9807 9.37195 13.7572 9.14852C13.5338 8.92509 13.2308 8.79956 12.9148 8.79956C12.5988 8.79956 12.2958 8.92509 12.0723 9.14852C11.8489 9.37195 11.7234 9.67499 11.7234 9.99097Z" fill="#449728"/>
<path d="M22.3269 16.2816C22.3269 16.5976 22.4524 16.9007 22.6758 17.1241C22.8993 17.3475 23.2023 17.4731 23.5183 17.4731C23.8343 17.4731 24.1373 17.3475 24.3607 17.1241C24.5842 16.9007 24.7097 16.5976 24.7097 16.2816C24.7097 15.9657 24.5842 15.6626 24.3607 15.4392C24.1373 15.2158 23.8343 15.0902 23.5183 15.0902C23.2023 15.0902 22.8993 15.2158 22.6758 15.4392C22.4524 15.6626 22.3269 15.9657 22.3269 16.2816Z" fill="#449728"/>
<path d="M13.2722 15.6265C13.2722 15.9425 13.3977 16.2455 13.6211 16.4689C13.8446 16.6924 14.1476 16.8179 14.4636 16.8179C14.7796 16.8179 15.0826 16.6924 15.306 16.4689C15.5295 16.2455 15.655 15.9425 15.655 15.6265C15.655 15.3105 15.5295 15.0075 15.306 14.784C15.0826 14.5606 14.7796 14.4351 14.4636 14.4351C14.1476 14.4351 13.8446 14.5606 13.6211 14.784C13.3977 15.0075 13.2722 15.3105 13.2722 15.6265Z" fill="#449728"/>
</svg>
