<svg width="38" height="29" viewBox="0 0 38 29" fill="none" xmlns="http://www.w3.org/2000/svg">
<path fill-rule="evenodd" clip-rule="evenodd" d="M2.375 22.3077C2.375 13.6835 9.81825 6.69231 19 6.69231C28.1817 6.69231 35.625 13.6835 35.625 22.3077H2.375ZM20.1875 4.46154V2.23077H22.5625C23.2192 2.23077 23.75 1.73219 23.75 1.11538C23.75 0.499692 23.2192 0 22.5625 0H15.4375C14.7808 0 14.25 0.499692 14.25 1.11538C14.25 1.73219 14.7808 2.23077 15.4375 2.23077H17.8125C17.8125 2.23077 17.8042 4.553 17.8125 4.46154C7.8755 5.04042 0 12.828 0 22.3077V23.4231C0 24.0399 0.530813 24.5385 1.1875 24.5385H36.8125C37.4692 24.5385 38 24.0399 38 23.4231V22.3077C38 12.828 30.1245 5.04042 20.1875 4.46154ZM36.8125 26.7692H1.1875C0.530813 26.7692 0 27.2689 0 27.8846C0 28.5014 0.530813 29 1.1875 29H36.8125C37.4692 29 38 28.5014 38 27.8846C38 27.2689 37.4692 26.7692 36.8125 26.7692Z" fill="#449728"/>
</svg>
