<svg width="37" height="41" viewBox="0 0 37 41" fill="none" xmlns="http://www.w3.org/2000/svg">
<path d="M35.2635 27.6866C34.0016 25.7968 32.0181 24.7129 29.8216 24.7129H29.2963C29.5873 23.9631 30.2874 23.4328 31.1041 23.4328C31.51 23.4328 31.8389 23.0869 31.8389 22.6603C31.8389 22.2336 31.51 21.8878 31.1041 21.8878C30.2248 21.8878 29.4222 22.2383 28.8154 22.8133C28.3722 21.7668 27.5248 20.9504 26.4825 20.5838L26.9315 14.0566H27.8084C28.0271 14.0566 28.2345 13.9541 28.3741 13.7771C28.5138 13.6001 28.571 13.3669 28.5305 13.1409L27.6286 8.11448C27.5631 7.74956 27.2599 7.48515 26.9065 7.48515H23.6229L24.5158 2.13264C24.5528 1.91027 24.6842 1.72457 24.8759 1.62303C25.0675 1.52157 25.2876 1.52109 25.4796 1.62199L29.4817 3.72556C29.8449 3.91638 30.2861 3.76167 30.4677 3.3801C30.6492 2.99845 30.502 2.53448 30.139 2.34373L26.1368 0.240237C25.5255 -0.081116 24.8248 -0.079995 24.2144 0.243361C23.604 0.566716 23.1862 1.15809 23.0681 1.8659L22.1307 7.48531H7.54327C7.18998 7.48531 6.88666 7.74964 6.82116 8.11464L5.91928 13.1411C5.87876 13.367 5.93604 13.6002 6.07566 13.7773C6.21529 13.9543 6.4227 14.0568 6.64139 14.0568H7.51828L8.22691 24.374H5.17181C2.60718 24.374 0.520752 26.5674 0.520752 29.2636V30.374C0.520752 30.687 0.69808 30.9558 0.952647 31.0773C0.678885 31.5461 0.520752 32.097 0.520752 32.6861C0.520752 33.2753 0.678885 33.8263 0.952647 34.295C0.69808 34.4164 0.520752 34.6853 0.520752 34.9983V37.4333C0.520752 39.399 2.0419 40.9983 3.91177 40.9983H12.7479C12.7517 40.9983 12.7555 40.998 12.7592 40.998H26.4809L26.4641 40.9853C26.4922 40.9832 26.5205 40.9828 26.5486 40.98C26.8869 40.947 27.2228 40.8694 27.547 40.749C27.8272 40.645 28.1197 40.5922 28.4166 40.5922C28.5567 40.5922 28.6966 40.604 28.8318 40.6271C28.9878 40.6538 29.1405 40.6948 29.2854 40.7487C29.7362 40.9165 30.2006 41 30.6607 41C31.225 41 31.783 40.8743 32.3017 40.6243C32.6879 40.4375 33.0477 40.1991 33.3713 39.915C33.3771 39.9103 33.3827 39.9053 33.3884 39.9004C33.7566 39.575 34.0747 39.195 34.3338 38.7711C34.5273 38.4546 34.687 38.1144 34.8088 37.76L36.0746 34.0775C36.8211 31.9058 36.5254 29.5765 35.2635 27.6866ZM27.6819 24.4768V24.7129H27.4571C26.1147 24.7129 25.0226 23.5648 25.0226 22.1536V21.9174H25.2474C26.5898 21.9174 27.6819 23.0654 27.6819 24.4768ZM8.202 12.5114C8.20017 12.5114 8.19827 12.5117 8.19644 12.5117H7.52788L8.15249 9.03033H26.2972L26.9219 12.5117H26.2534C26.2516 12.5117 26.2498 12.5114 26.2479 12.5114H8.202ZM1.99041 29.2636C1.99041 27.4194 3.41757 25.9191 5.17181 25.9191H11.488C13.2422 25.9191 14.6694 27.4194 14.6694 29.2636V29.6014H13.2048H3.45497H1.99041V29.2636ZM14.6695 37.4333C14.6695 38.5471 13.8076 39.4533 12.748 39.4533H3.91185C2.85245 39.4532 1.99041 38.5471 1.99041 37.4333V35.7708H3.45497H13.2049H14.6695V37.4333ZM13.2049 34.2258H3.45497C2.64747 34.2258 1.99041 33.535 1.99041 32.6861C1.99041 31.8372 2.64747 31.1465 3.45497 31.1465H13.2049C14.0124 31.1465 14.6695 31.8372 14.6695 32.6861C14.6695 33.535 14.0124 34.2258 13.2049 34.2258ZM15.5404 39.4528C15.9176 38.8783 16.1391 38.1825 16.1391 37.4332V34.9981C16.1391 34.6851 15.9618 34.4163 15.7072 34.2948C15.981 33.826 16.1391 33.2751 16.1391 32.686C16.1391 32.0968 15.981 31.5458 15.7072 31.0771C15.9618 30.9557 16.1391 30.6868 16.1391 30.3738V29.2634C16.1391 26.5673 14.0527 24.3739 11.4881 24.3739H9.70045L8.99183 14.0567H25.4581L25.0236 20.3723H24.2879C23.882 20.3723 23.5531 20.7181 23.5531 21.1448V22.1536C23.5531 23.3176 24.0172 24.3691 24.7602 25.1168C23.489 25.5919 22.3805 26.4726 21.5701 27.6865C20.3081 29.5763 20.0125 31.9057 20.7588 34.0772L22.0248 37.7598C22.2411 38.3892 22.5772 38.9646 23.0039 39.4527L15.5404 39.4528ZM34.6926 33.5523L33.4268 37.2351C33.3425 37.4809 33.2317 37.7166 33.0978 37.9357C32.9218 38.2235 32.7065 38.4823 32.4574 38.705C32.452 38.7094 32.4469 38.7139 32.4416 38.7185C32.2148 38.9197 31.9614 39.0885 31.6887 39.2202C31.0971 39.5055 30.4178 39.5312 29.7761 39.2922C29.5489 39.2077 29.3111 39.1439 29.0684 39.1021C28.8547 39.0656 28.6355 39.0471 28.4168 39.0471C27.953 39.0471 27.4958 39.1295 27.058 39.2919C26.848 39.3699 26.6312 39.4201 26.4129 39.4414C25.9728 39.4848 25.5344 39.408 25.1448 39.2201C24.3289 38.8268 23.7117 38.1217 23.4068 37.2349L22.1408 33.5524C21.5594 31.8608 21.7899 30.0464 22.7728 28.5743C23.7558 27.1022 25.3007 26.2579 27.0114 26.2579H29.8217C31.5327 26.2579 33.0777 27.1021 34.0608 28.5743C35.0435 30.0464 35.274 31.8608 34.6926 33.5523Z" fill="#449728"/>
</svg>
