<svg width="44" height="40" viewBox="0 0 44 40" fill="none" xmlns="http://www.w3.org/2000/svg">
<path d="M42.2344 17.8174C41.9872 17.1135 41.607 16.4636 41.1145 15.9031C41.128 15.7282 41.1354 15.549 41.1354 15.3658C41.1354 15.3278 41.1354 15.2943 41.1354 15.2649C41.1196 14.2243 40.8912 13.1979 40.4641 12.2488C40.0371 11.2997 39.4204 10.448 38.6521 9.74606L43.2093 5.11527L43.224 5.09961C43.7454 4.54089 44.0241 3.7983 43.9991 3.03448C43.9741 2.27067 43.6474 1.54789 43.0905 1.02449L42.2504 1.91862L43.0887 1.02203C42.5562 0.523606 41.8543 0.24621 41.1249 0.246043C40.6521 0.246043 40.074 0.238989 39.75 0.594307L34.7375 6.05142C34.0966 5.3926 33.3301 4.86906 32.4833 4.51178C31.6365 4.15449 30.7266 3.97073 29.8075 3.97136C29.7768 3.97136 29.7363 3.97136 29.6823 3.97136C28.311 3.99533 26.9784 4.4299 25.8567 5.21896C24.6304 4.55279 23.2568 4.20466 21.8613 4.2064C21.822 4.2064 21.7769 4.2064 21.7241 4.2064C19.6845 4.23955 17.7267 5.01491 16.2175 6.38734C14.7082 7.75977 13.7508 9.63519 13.5245 11.6626C12.4922 11.0797 11.3265 10.7742 10.141 10.7758C10.1128 10.7758 10.075 10.7758 10.0281 10.7758C8.21882 10.8049 6.49342 11.5437 5.22384 12.8331C3.95426 14.1225 3.24219 15.8591 3.24113 17.6686C3.24113 17.6962 3.24113 17.734 3.24113 17.7825V17.7874H2.21722C1.50229 17.7874 0.880631 17.8181 0.31789 18.5084C0.0144268 18.8813 -0.000915527 19.8711 -0.000915527 19.8711C-0.000915527 19.8963 -0.000914029 19.919 0.000620162 19.9395C0.000620162 19.9555 -0.000915527 19.973 -0.000915527 19.9911C-0.000457774 20.0585 0.00476062 20.1257 0.0147223 20.1924C0.204655 26.373 2.94995 31.0238 7.00421 33.9756C8.64948 35.163 10.4594 36.1036 12.3766 36.7678C12.4979 37.5976 12.9136 38.356 13.5478 38.9047C14.182 39.4533 14.9924 39.7555 15.831 39.7561H27.9861C28.8248 39.7557 29.6353 39.4535 30.2696 38.9047C30.9038 38.356 31.3194 37.5974 31.4405 36.7675C33.3575 36.1033 35.1672 35.1626 36.8123 33.9752C40.8663 31.0231 43.6112 26.3721 43.8015 20.1945C43.8015 20.1945 43.8444 19.0384 43.5502 18.5397C43.3305 18.0457 42.7877 17.8748 42.2344 17.8174ZM38.6803 15.2974C38.6803 15.3189 38.6803 15.3446 38.6803 15.3658C38.6783 15.6325 38.6562 15.8986 38.6144 16.162L38.5165 16.8135L39.0047 17.2559C39.1815 17.4158 39.3409 17.594 39.4803 17.7874H11.0321C11.3377 17.3534 11.7417 16.998 12.211 16.75C12.6803 16.5021 13.2015 16.3686 13.7323 16.3606H13.7476H13.7565H13.7872C14.4324 16.3636 15.0637 16.5489 15.6082 16.8951L16.5493 17.4999L17.2385 16.6189C17.2802 16.5655 17.3275 16.5171 17.372 16.4655C17.7104 16.0741 18.1276 15.7586 18.5965 15.5397C19.0653 15.3208 19.575 15.2034 20.0924 15.1952H20.1077C20.1102 15.1952 20.1268 15.1952 20.1535 15.1952C20.947 15.1949 21.7192 15.4518 22.3544 15.9273L23.22 16.5717L23.9702 15.7957C24.3075 15.4448 24.7111 15.1643 25.1575 14.9704C25.6039 14.7765 26.0843 14.673 26.571 14.6659H26.5952H26.6173C26.8065 14.6675 26.9953 14.6832 27.1822 14.7129L28.2254 14.869L28.5357 13.8592C28.8557 12.8191 29.4947 11.906 30.3623 11.2491C31.2298 10.5922 32.282 10.2247 33.3699 10.1986L33.6362 10.2057C33.8264 10.2118 34.0161 10.228 34.2045 10.2542C34.5302 10.2994 34.8509 10.3756 35.1621 10.4815C35.1879 10.4904 35.2146 10.4969 35.2404 10.5061C35.3772 10.5546 35.5104 10.611 35.6417 10.6709C35.6724 10.6847 35.7031 10.6967 35.7313 10.7111C35.8627 10.7741 35.9911 10.8428 36.1167 10.9173C36.2042 10.9682 36.2944 11.0155 36.3785 11.0707C36.4862 11.1428 36.5889 11.2207 36.6905 11.3005C37.2996 11.7758 37.7945 12.3816 38.1388 13.0732C38.4831 13.7649 38.6682 14.5249 38.6803 15.2974ZM40.7687 2.87411L40.8227 2.82256C40.9036 2.74413 41.012 2.70062 41.1246 2.70137C41.2302 2.7005 41.3321 2.74038 41.4091 2.81274C41.4913 2.88988 41.5401 2.99605 41.5452 3.10866C41.5503 3.22127 41.5113 3.33144 41.4364 3.41569L36.5527 8.37909C36.4282 8.32448 36.3018 8.27334 36.1738 8.22567C36.1542 8.17781 36.1348 8.12995 36.1124 8.08239L40.7687 2.87411ZM21.7637 6.66142H21.7772H21.861C23.0729 6.65959 24.2559 7.03172 25.2485 7.72706L26.0607 8.29472L26.7867 7.61968C27.5872 6.86989 28.6381 6.44503 29.7348 6.42791H29.7563C29.7593 6.42791 29.7759 6.42791 29.8072 6.42791C30.3981 6.42769 30.983 6.54582 31.5275 6.77533C32.072 7.00483 32.565 7.34108 32.9774 7.7642C31.6034 7.8567 30.2799 8.31904 29.1472 9.10227C28.0144 9.8855 27.1145 10.9605 26.5428 12.2134C26.5326 12.2134 26.5216 12.2134 26.5093 12.2134C25.2296 12.2369 23.9894 12.6604 22.9626 13.4244C22.0946 12.9755 21.1316 12.7413 20.1544 12.7414C20.1271 12.7414 20.0893 12.7414 20.0393 12.7414C18.6131 12.7675 17.2408 13.2908 16.1593 14.221C16.0155 13.7219 15.9382 13.2061 15.9292 12.6868C15.9292 12.6534 15.9292 12.6254 15.9292 12.5898C15.93 11.0339 16.542 9.54063 17.6333 8.4317C18.7247 7.32277 20.2081 6.68702 21.7637 6.66142ZM5.69646 17.7438V17.7346V17.7226C5.69646 17.7174 5.69646 17.6999 5.69646 17.6686C5.69767 16.5032 6.15665 15.3849 6.97451 14.5547C7.79236 13.7244 8.90363 13.2487 10.0689 13.2299H10.0803H10.1416C11.0428 13.2286 11.9227 13.5031 12.6632 14.0166C11.6708 14.2129 10.7464 14.6636 9.98064 15.3248C9.21492 15.9859 8.63419 16.8347 8.29539 17.788H5.69829L5.69646 17.7438ZM35.3616 31.9961C33.7715 33.1414 32.0097 34.0271 30.142 34.6202L29.9299 34.6862C29.8882 34.6994 29.8455 34.712 29.8035 34.7245C29.5321 34.8092 29.2573 34.889 28.9793 34.9639L28.8502 34.9973C28.59 35.0658 28.3275 35.1302 28.0628 35.1903L27.8953 35.2281C27.6418 35.2833 27.3868 35.335 27.13 35.3833C27.0644 35.3959 26.9984 35.4085 26.9321 35.4198C26.6836 35.4646 26.4338 35.5048 26.1825 35.5426C26.1083 35.5533 26.0346 35.5656 25.9607 35.5757C25.7152 35.6105 25.468 35.6412 25.219 35.6678C25.1396 35.677 25.0607 35.6871 24.9812 35.6954C24.7358 35.7212 24.4857 35.7423 24.2369 35.7613C24.1562 35.7675 24.0761 35.7752 23.9954 35.7807C23.737 35.7985 23.4774 35.8114 23.2172 35.8212C23.1464 35.8242 23.0758 35.8292 23.0046 35.8316C22.6744 35.8429 22.3432 35.8486 22.0107 35.8488C21.9957 35.8488 21.9644 35.8466 21.9098 35.8466H21.888C21.8466 35.8466 21.8159 35.8488 21.803 35.8488C21.47 35.8488 21.1383 35.8431 20.8079 35.8316C20.7423 35.8292 20.6772 35.8249 20.6116 35.8218C20.3458 35.8111 20.0801 35.7985 19.8159 35.7807C19.7411 35.7752 19.6671 35.7681 19.5926 35.762C19.337 35.7429 19.0823 35.7211 18.8291 35.6948C18.7552 35.6871 18.6822 35.6776 18.6088 35.6696C18.3548 35.6412 18.1016 35.6095 17.8494 35.5745C17.781 35.565 17.7126 35.5539 17.6438 35.5438C17.3867 35.5048 17.1305 35.4634 16.8767 35.418L16.6981 35.3852C16.433 35.3352 16.1698 35.2821 15.9083 35.2238C15.862 35.2136 15.8163 35.2035 15.7687 35.1931C15.4907 35.1301 15.2146 35.0625 14.9403 34.9903C14.9123 34.9826 14.8838 34.9755 14.8559 34.9682C14.5554 34.8874 14.2582 34.8012 13.9642 34.7098L13.6555 34.6135C11.7953 34.0206 10.0406 33.1371 8.45646 31.9958C4.99165 29.4343 2.70448 25.6768 2.47465 20.2418H41.3431C41.1133 25.6771 38.8264 29.4346 35.3616 31.9961Z" fill="#449728"/>
</svg>
