<svg width="44" height="34" viewBox="0 0 44 34" fill="none" xmlns="http://www.w3.org/2000/svg">
<path d="M5.35243 2H38.6476C39.0894 1.99999 39.5269 2.09202 39.9349 2.27079C40.3429 2.44955 40.7133 2.71154 41.0248 3.04167C41.3364 3.3718 41.5829 3.76357 41.7502 4.19444C41.9176 4.62532 42.0025 5.0868 41.9999 5.55236C41.9999 8.10626 41.5225 10.6352 40.595 12.9946C39.6674 15.3541 38.3079 17.498 36.594 19.3039C33.1326 22.9511 28.438 25 23.5429 25H20.4571C15.562 25 10.8674 22.9511 7.40601 19.3039C3.94463 15.6568 2.00005 10.7102 2.00005 5.55236C1.99754 5.0868 2.0824 4.62532 2.24975 4.19444C2.4171 3.76357 2.66363 3.3718 2.97518 3.04167C3.28673 2.71154 3.65714 2.44955 4.06511 2.27079C4.47309 2.09202 4.91058 1.99999 5.35243 2Z" stroke="#449728" stroke-width="3" stroke-miterlimit="10"/>
<path d="M5.52385 2H38.4761C38.9405 1.99999 39.4003 2.09459 39.8291 2.27835C40.2578 2.46211 40.6471 2.73141 40.9746 3.07078C41.3021 3.41014 41.5612 3.81287 41.7372 4.25582C41.9132 4.69877 42.0025 5.1732 41.9999 5.65183V11.9935C41.9999 17.2995 39.955 22.3883 36.315 26.1402C32.6751 29.8922 27.7382 32 22.5905 32H21.3905C16.2461 31.9948 11.3141 29.8847 7.67822 26.1333C4.04236 22.3819 2.00005 17.2961 2.00005 11.9935V5.65183C1.99754 5.1732 2.08683 4.69877 2.2628 4.25582C2.43876 3.81287 2.69792 3.41014 3.02539 3.07078C3.35286 2.73141 3.74216 2.46211 4.17094 2.27835C4.59971 2.09459 5.05949 1.99999 5.52385 2Z" stroke="#449728" stroke-width="3" stroke-miterlimit="10"/>
<path d="M28 13L30 16" stroke="#449728" stroke-width="3" stroke-miterlimit="10"/>
<path d="M33 10H36" stroke="#449728" stroke-width="3" stroke-miterlimit="10"/>
<path d="M23 5L26 9" stroke="#449728" stroke-width="3" stroke-miterlimit="10"/>
</svg>
