<svg width="80" height="46" viewBox="0 0 80 46" fill="none" xmlns="http://www.w3.org/2000/svg">
<path d="M62.3319 30.6667C61.5594 30.6667 60.8772 30.4132 60.2855 29.9061C59.7102 29.4155 59.4225 28.7858 59.4225 28.0171C59.4225 27.2974 59.6033 26.7086 59.965 26.2507C60.3266 25.7927 60.795 25.4329 61.3704 25.1712C61.9457 24.9095 62.7182 24.6315 63.688 24.3371L63.9346 23.2576C63.0963 24.2062 62.0936 24.6805 60.9265 24.6805C60.1376 24.6805 59.4965 24.4352 59.0034 23.9445C58.5267 23.4539 58.2884 22.7179 58.2884 21.7365C58.2884 21.3276 58.3541 20.7961 58.4856 20.1419L60.1622 12.2667H63.7127L61.9374 20.608C61.8881 20.8043 61.8635 21.0087 61.8635 21.2213C61.8635 21.941 62.11 22.3008 62.6031 22.3008C63.0634 22.3008 63.4579 22.1127 63.7866 21.7365C64.1154 21.344 64.3784 20.8124 64.5756 20.1419L66.2522 12.2667H69.8273L66.8193 26.496C66.4906 28.0661 65.907 29.1538 65.0687 29.7589C64.2469 30.3641 63.3346 30.6667 62.3319 30.6667ZM61.7648 28.4832C62.0607 28.4832 62.3402 28.3278 62.6031 28.0171C62.8661 27.7227 63.0716 27.2402 63.2195 26.5696L63.5154 25.1221C62.6442 25.4165 61.9703 25.76 61.4936 26.1525C61.0169 26.5451 60.7786 27.0521 60.7786 27.6736C60.7786 27.8699 60.8772 28.0498 61.0745 28.2133C61.2717 28.3932 61.5018 28.4832 61.7648 28.4832Z" fill="white"/>
<path d="M54.3532 24.6805C53.5642 24.6805 52.9232 24.4352 52.4301 23.9445C51.9534 23.4539 51.7151 22.7179 51.7151 21.7365C51.7151 21.3277 51.7808 20.7961 51.9123 20.1419L54.5505 7.85067L58.1996 7.36L55.3641 20.608C55.2984 20.8533 55.2655 21.115 55.2655 21.3931C55.2655 21.7202 55.3395 21.9573 55.4874 22.1045C55.6518 22.2354 55.9148 22.3008 56.2764 22.3008C56.7531 22.3008 57.1969 22.1045 57.6078 21.712C58.0188 21.3031 58.3146 20.7797 58.4954 20.1419H59.531C58.9228 21.9083 58.142 23.1104 57.1887 23.7483C56.2353 24.3698 55.2902 24.6805 54.3532 24.6805Z" fill="white"/>
<path d="M48.3647 24.6805C47.3621 24.6805 46.6224 24.4189 46.1457 23.8955C45.6855 23.3557 45.4553 22.6933 45.4553 21.9083C45.4553 21.5648 45.4964 21.1805 45.5786 20.7552C45.6608 20.3136 45.743 19.8884 45.8252 19.4795C45.9238 19.0706 45.9896 18.8089 46.0224 18.6944C46.1539 18.122 46.2772 17.5577 46.3923 17.0016C46.5073 16.4455 46.5649 15.9957 46.5649 15.6523C46.5649 14.8181 46.269 14.4011 45.6772 14.4011C45.2499 14.4011 44.8718 14.6137 44.5431 15.0389C44.2143 15.4478 43.9513 15.9876 43.7541 16.6581L42.0775 24.5333H38.527L42.1021 7.85067L45.7512 7.36L44.4198 13.5424C45.2417 12.6265 46.2032 12.1685 47.3045 12.1685C48.1428 12.1685 48.8085 12.3975 49.3017 12.8555C49.7948 13.3134 50.0413 14.0085 50.0413 14.9408C50.0413 15.4151 49.9838 15.9467 49.8687 16.5355C49.7537 17.1079 49.5893 17.8112 49.3756 18.6453C49.2441 19.1524 49.1209 19.6512 49.0058 20.1419C48.9072 20.6162 48.8579 20.9924 48.8579 21.2704C48.8579 21.5975 48.9318 21.851 49.0798 22.0309C49.2277 22.2109 49.4825 22.3008 49.8441 22.3008C50.3372 22.3008 50.7317 22.1291 51.0276 21.7856C51.3235 21.4258 51.6193 20.8779 51.9152 20.1419H52.9507C52.3426 21.941 51.6358 23.1513 50.8303 23.7728C50.0413 24.378 49.2195 24.6805 48.3647 24.6805Z" fill="white"/>
<path d="M32.8602 24.6805C32.0712 24.6805 31.4055 24.5333 30.8631 24.2389C30.3206 23.9282 29.9179 23.5357 29.6549 23.0613C29.3919 22.5707 29.2604 22.0637 29.2604 21.5403C29.2604 21.0005 29.3919 20.5344 29.6549 20.1419C29.9015 19.733 30.2056 19.4386 30.5672 19.2587C31.2083 18.1138 31.7671 16.9607 32.2438 15.7995C32.7205 14.6219 33.1725 13.3543 33.5999 11.9968L37.249 11.5061C37.3311 13.5996 37.4709 15.8649 37.6681 18.3019C37.7503 19.2832 37.7914 19.9947 37.7914 20.4363C37.7914 20.8124 37.7585 21.1232 37.6928 21.3685C38.4653 20.9269 39.0571 20.518 39.468 20.1419H40.5035C39.4516 21.3522 38.1941 22.3744 36.7312 23.2085C36.2545 23.7156 35.6628 24.0917 34.956 24.3371C34.2656 24.5661 33.567 24.6805 32.8602 24.6805ZM32.0712 22.7424C32.6794 22.7424 33.1889 22.5625 33.5999 22.2027C34.0108 21.8428 34.2163 21.2622 34.2163 20.4608C34.2163 19.9701 34.167 19.2832 34.0683 18.4C33.904 16.5355 33.7971 15.2843 33.7478 14.6464C33.3533 15.9385 32.6876 17.4841 31.7507 19.2832C32.1287 19.4795 32.3178 19.7657 32.3178 20.1419C32.3178 20.4526 32.2109 20.7307 31.9972 20.976C31.8 21.2213 31.5452 21.344 31.2329 21.344C30.8877 21.344 30.6658 21.2377 30.5672 21.0251C30.5672 21.6139 30.6823 22.0473 30.9124 22.3253C31.1589 22.6034 31.5452 22.7424 32.0712 22.7424Z" fill="white"/>
<path d="M24.1125 24.6805C22.8962 24.6805 21.951 24.3698 21.2771 23.7483C20.6032 23.1104 20.2662 22.1209 20.2662 20.7797C20.2662 19.6512 20.4881 18.4082 20.9319 17.0507C21.3757 15.6932 22.099 14.5237 23.1017 13.5424C24.1043 12.5447 25.3782 12.0459 26.9233 12.0459C28.7314 12.0459 29.6355 12.8309 29.6355 14.4011C29.6355 15.317 29.3725 16.1593 28.8465 16.928C28.3205 17.6967 27.6219 18.3182 26.7507 18.7925C25.8796 19.2505 24.9508 19.5122 23.9646 19.5776C23.9317 20.0683 23.9153 20.3954 23.9153 20.5589C23.9153 21.3604 24.055 21.9083 24.3344 22.2027C24.6139 22.4807 25.0659 22.6197 25.6905 22.6197C26.5781 22.6197 27.3343 22.4153 27.9589 22.0064C28.5999 21.5975 29.2985 20.976 30.0546 20.1419H30.8929C29.0684 23.1676 26.8083 24.6805 24.1125 24.6805ZM24.1619 18.4C24.77 18.3673 25.3453 18.1547 25.8878 17.7621C26.4466 17.3696 26.8904 16.8708 27.2192 16.2656C27.5644 15.6604 27.737 15.0226 27.737 14.352C27.737 13.6814 27.5315 13.3461 27.1206 13.3461C26.5288 13.3461 25.9453 13.8613 25.37 14.8917C24.8111 15.9221 24.4084 17.0916 24.1619 18.4Z" fill="white"/>
<path d="M12.9933 12.2667H16.5437L16.2232 13.7877C16.7821 13.2971 17.2834 12.9209 17.7272 12.6592C18.1875 12.3975 18.6806 12.2667 19.2066 12.2667C19.7326 12.2667 20.1435 12.4466 20.4394 12.8064C20.7517 13.1662 20.9078 13.5996 20.9078 14.1067C20.9078 14.581 20.7517 14.998 20.4394 15.3579C20.1271 15.7177 19.6915 15.8976 19.1326 15.8976C18.771 15.8976 18.5244 15.8158 18.3929 15.6523C18.2779 15.4724 18.1875 15.2188 18.1217 14.8917C18.0724 14.6791 18.0231 14.5237 17.9738 14.4256C17.9245 14.3275 17.8341 14.2784 17.7026 14.2784C17.3574 14.2784 17.0615 14.352 16.815 14.4992C16.5848 14.63 16.2807 14.8672 15.9027 15.2107L13.9302 24.5333H10.3798L12.9933 12.2667Z" fill="white"/>
<path d="M5.72018 8.14507C4.68463 8.17778 3.88742 8.57031 3.32856 9.32267C2.78613 10.075 2.51491 11.3753 2.51491 13.2235C2.51491 13.8286 2.57244 14.2539 2.6875 14.4992C2.80256 14.7282 2.86009 14.859 2.86009 14.8917C1.97248 14.8917 1.30677 14.7118 0.862963 14.352C0.435593 13.9758 0.221909 13.3625 0.221909 12.512C0.221909 11.3508 0.509561 10.2958 1.08487 9.3472C1.66017 8.38222 2.57244 7.60533 3.82167 7.01653C5.08735 6.42773 6.68998 6.13333 8.62958 6.13333C9.02408 6.13333 9.55007 6.17422 10.2076 6.256C11.391 6.37049 12.2293 6.42773 12.7225 6.42773C13.5936 6.42773 14.3333 6.3296 14.9415 6.13333C14.8922 6.28053 14.8018 6.60764 14.6703 7.11467C14.5388 7.60533 14.3004 8.03058 13.9553 8.3904C13.6265 8.73387 13.1745 8.96284 12.5992 9.07733C11.6294 9.07733 10.4788 8.92195 9.14736 8.6112L8.11181 13.4933H11.7116L11.3171 15.3088H7.71731L5.72018 24.5333H2.16973L5.72018 8.14507Z" fill="white"/>
<path d="M70.0883 40.0139C69.1514 40.0139 68.3706 39.6949 67.746 39.0571C67.1214 38.4192 66.8091 37.4215 66.8091 36.064C66.8091 34.8537 67.0474 33.5861 67.5241 32.2613C68.0172 30.9202 68.7405 29.7916 69.6938 28.8757C70.6636 27.9435 71.8142 27.4773 73.1457 27.4773C73.8196 27.4773 74.3209 27.5918 74.6497 27.8208C74.9784 28.0498 75.1428 28.3524 75.1428 28.7285V28.8267L76.3509 23.184L80 22.6933L77.1646 35.9413C77.0988 36.1867 77.066 36.4238 77.066 36.6528C77.066 37.307 77.4029 37.6341 78.0768 37.6341C78.3727 37.6341 78.6357 37.5851 78.8658 37.4869C78.8001 38.3047 78.5042 38.9344 77.9782 39.376C77.4687 39.8012 76.8605 40.0139 76.1537 40.0139C75.4962 40.0139 74.9373 39.8503 74.4771 39.5232C74.0333 39.1797 73.7374 38.6645 73.5895 37.9776C72.6032 39.3351 71.4362 40.0139 70.0883 40.0139ZM71.691 37.6341C72.0526 37.6341 72.4142 37.4788 72.7758 37.168C73.1539 36.8572 73.4333 36.4238 73.6141 35.8677L73.7127 35.4752L74.9209 29.8571C74.7729 29.2846 74.436 28.9984 73.91 28.9984C73.2525 28.9984 72.6608 29.3828 72.1348 30.1515C71.6088 30.9038 71.1978 31.8197 70.902 32.8992C70.6061 33.9623 70.4582 34.9028 70.4582 35.7205C70.4582 36.5383 70.5732 37.0617 70.8033 37.2907C71.0499 37.5196 71.3458 37.6341 71.691 37.6341Z" fill="white"/>
<path d="M61.1927 40.0139C59.9764 40.0139 59.0312 39.7031 58.3573 39.0816C57.6834 38.4437 57.3464 37.4542 57.3464 36.1131C57.3464 34.9845 57.5683 33.7415 58.0121 32.384C58.4559 31.0265 59.1792 29.8571 60.1818 28.8757C61.1845 27.878 62.4584 27.3792 64.0035 27.3792C65.8116 27.3792 66.7157 28.1643 66.7157 29.7344C66.7157 30.6503 66.4527 31.4926 65.9267 32.2613C65.4007 33.03 64.7021 33.6516 63.8309 34.1259C62.9597 34.5838 62.031 34.8455 61.0448 34.9109C61.0119 35.4016 60.9955 35.7287 60.9955 35.8923C60.9955 36.6937 61.1352 37.2416 61.4146 37.536C61.6941 37.814 62.1461 37.9531 62.7707 37.9531C63.6583 37.9531 64.4144 37.7486 65.0391 37.3397C65.6801 36.9308 66.3787 36.3093 67.1348 35.4752H67.9731C66.1486 38.501 63.8884 40.0139 61.1927 40.0139ZM61.242 33.7333C61.8502 33.7006 62.4255 33.488 62.968 33.0955C63.5268 32.7029 63.9706 32.2041 64.2994 31.5989C64.6446 30.9938 64.8172 30.3559 64.8172 29.6853C64.8172 29.0148 64.6117 28.6795 64.2008 28.6795C63.609 28.6795 63.0255 29.1947 62.4502 30.2251C61.8913 31.2555 61.4886 32.4249 61.242 33.7333Z" fill="white"/>
<path d="M48.0074 26.6923H51.5579L51.1634 28.5323C51.9852 27.829 52.9468 27.4773 54.0481 27.4773C54.9686 27.4773 55.7001 27.7799 56.2425 28.3851C56.7849 28.9902 57.0561 29.9797 57.0561 31.3536C57.0561 32.6457 56.8671 33.9541 56.489 35.2789C56.111 36.5874 55.4699 37.7077 54.5659 38.64C53.6618 39.5559 52.4701 40.0139 50.9908 40.0139C49.9388 40.0139 49.2402 39.7195 48.895 39.1307L47.6129 45.1168L43.8899 46L48.0074 26.6923ZM50.2264 37.8795C51.0154 37.8795 51.6647 37.5115 52.1743 36.7755C52.7002 36.0395 53.0783 35.1644 53.3084 34.1504C53.555 33.12 53.6783 32.1632 53.6783 31.28C53.6783 29.9225 53.2673 29.2437 52.4455 29.2437C52.1496 29.2437 51.8455 29.35 51.5332 29.5627C51.2373 29.7753 50.9743 30.0697 50.7442 30.4459L49.2895 37.3152C49.421 37.6914 49.7333 37.8795 50.2264 37.8795Z" fill="white"/>
<path d="M36.474 26.6923H40.0245L39.63 28.5323C40.4518 27.829 41.4134 27.4773 42.5147 27.4773C43.4352 27.4773 44.1667 27.7799 44.7091 28.3851C45.2515 28.9902 45.5227 29.9797 45.5227 31.3536C45.5227 32.6457 45.3337 33.9541 44.9557 35.2789C44.5776 36.5874 43.9365 37.7077 43.0325 38.64C42.1284 39.5559 40.9367 40.0139 39.4574 40.0139C38.4054 40.0139 37.7068 39.7195 37.3616 39.1307L36.0795 45.1168L32.3565 46L36.474 26.6923ZM38.693 37.8795C39.482 37.8795 40.1313 37.5115 40.6409 36.7755C41.1669 36.0395 41.5449 35.1644 41.775 34.1504C42.0216 33.12 42.1449 32.1632 42.1449 31.28C42.1449 29.9225 41.7339 29.2437 40.9121 29.2437C40.6162 29.2437 40.3121 29.35 39.9998 29.5627C39.7039 29.7753 39.4409 30.0697 39.2108 30.4459L37.7561 37.3152C37.8876 37.6914 38.1999 37.8795 38.693 37.8795Z" fill="white"/>
<path d="M27.3648 39.9648C26.1485 39.9648 25.1869 39.654 24.4801 39.0325C23.7733 38.411 23.4199 37.4297 23.4199 36.0885C23.4199 34.9764 23.65 33.7415 24.1102 32.384C24.5705 31.0265 25.3101 29.8571 26.3293 28.8757C27.3484 27.878 28.6305 27.3792 30.1756 27.3792C32.2796 27.3792 33.3315 28.6876 33.3315 31.3045V31.3291C33.3809 31.3454 33.4713 31.3536 33.6028 31.3536C34.1452 31.3536 34.7698 31.2146 35.4766 30.9365C36.1834 30.6421 36.8245 30.2905 37.3998 29.8816L37.6217 30.544C37.145 31.051 36.5204 31.4844 35.7478 31.8443C34.9917 32.1877 34.1616 32.4331 33.2576 32.5803C33.1261 34.0686 32.7891 35.3689 32.2467 36.4811C31.7043 37.5932 31.0057 38.4519 30.1509 39.0571C29.2962 39.6622 28.3675 39.9648 27.3648 39.9648ZM28.351 37.7568C28.7455 37.7568 29.14 37.536 29.5345 37.0944C29.929 36.6364 30.2742 36.0231 30.5701 35.2544C30.866 34.4693 31.0796 33.6025 31.2111 32.6539C30.7673 32.5557 30.5454 32.2123 30.5454 31.6235C30.5454 30.9529 30.8002 30.5113 31.3098 30.2987C31.2769 29.7589 31.1947 29.3909 31.0632 29.1947C30.9317 28.982 30.7016 28.8757 30.3728 28.8757C29.8304 28.8757 29.3044 29.2683 28.7949 30.0533C28.2853 30.8384 27.8744 31.7788 27.5621 32.8747C27.2497 33.9705 27.0936 34.9355 27.0936 35.7696C27.0936 36.5547 27.184 37.0862 27.3648 37.3643C27.5456 37.626 27.8744 37.7568 28.351 37.7568Z" fill="white"/>
<path d="M16.1716 27.6H19.722L19.4015 29.1211C19.9604 28.6304 20.4617 28.2542 20.9055 27.9926C21.3658 27.7309 21.8589 27.6 22.3849 27.6C22.9109 27.6 23.3218 27.7799 23.6177 28.1398C23.93 28.4996 24.0861 28.933 24.0861 29.44C24.0861 29.9143 23.93 30.3314 23.6177 30.6912C23.3054 31.051 22.8698 31.231 22.3109 31.231C21.9493 31.231 21.7027 31.1492 21.5712 30.9856C21.4562 30.8057 21.3658 30.5522 21.3 30.2251C21.2507 30.0125 21.2014 29.8571 21.1521 29.759C21.1028 29.6608 21.0124 29.6118 20.8809 29.6118C20.5357 29.6118 20.2398 29.6854 19.9933 29.8326C19.7631 29.9634 19.459 30.2006 19.081 30.544L17.1085 39.8667H13.5581L16.1716 27.6Z" fill="white"/>
<path d="M4.4997 40.0139C3.56277 40.0139 2.782 39.6949 2.15738 39.0571C1.53277 38.4192 1.22046 37.4215 1.22046 36.064C1.22046 34.8537 1.4588 33.5861 1.93548 32.2613C2.4286 30.9202 3.15184 29.7916 4.1052 28.8757C5.075 27.9435 6.22561 27.4773 7.55703 27.4773C8.23096 27.4773 8.7323 27.5918 9.06105 27.8208C9.38979 28.0498 9.55416 28.3524 9.55416 28.7285V28.8267L10.7623 23.184L14.4114 22.6933L11.576 35.9413C11.5102 36.1867 11.4773 36.4484 11.4773 36.7264C11.4773 37.0535 11.5513 37.2907 11.6992 37.4379C11.8636 37.5687 12.1266 37.6341 12.4882 37.6341C12.9485 37.6341 13.343 37.4379 13.6717 37.0453C14.0169 36.6528 14.2881 36.1294 14.4854 35.4752H15.5209C14.5182 38.4028 12.8663 39.8667 10.5651 39.8667C9.89113 39.8667 9.34048 39.6868 8.91311 39.3269C8.50218 38.9671 8.2474 38.4437 8.14878 37.7568C7.72141 38.411 7.20363 38.9508 6.59545 39.376C6.00371 39.8012 5.30513 40.0139 4.4997 40.0139ZM6.10233 37.6341C6.49683 37.6341 6.89132 37.4542 7.28582 37.0944C7.69675 36.7346 7.97618 36.2357 8.12412 35.5979V35.4752L9.33226 29.8571C9.18433 29.2846 8.84736 28.9984 8.32137 28.9984C7.66388 28.9984 7.07213 29.3828 6.54614 30.1515C6.02015 30.9038 5.60921 31.8197 5.31334 32.8992C5.01747 33.9623 4.86954 34.9028 4.86954 35.7205C4.86954 36.5383 4.9846 37.0617 5.21472 37.2907C5.46128 37.5196 5.75715 37.6341 6.10233 37.6341Z" fill="white"/>
</svg>
